<svg version="1.0" xmlns="http://www.w3.org/2000/svg"
 width="300.000000pt" height="300.000000pt" viewBox="0 0 300.000000 300.000000"
 preserveAspectRatio="xMidYMid meet">
<metadata>
Created by potrace 1.10, written by Peter Selinger 2001-2011
</metadata>
<g transform="translate(0.000000,300.000000) scale(0.100000,-0.100000)"
fill="#000000" stroke="none">
<path d="M2465 2653 c-197 -27 -349 -133 -434 -303 -23 -45 -48 -107 -57 -136
-8 -30 -16 -54 -17 -54 -1 0 -27 7 -57 15 -72 19 -187 19 -264 -1 -74 -19
-179 -73 -223 -114 -18 -17 -36 -30 -41 -30 -4 0 -15 15 -24 33 -27 56 -126
172 -186 217 -105 79 -200 110 -337 110 -146 0 -274 -42 -461 -153 -148 -87
-161 -94 -240 -113 -87 -21 -96 -28 -82 -60 14 -31 40 -47 135 -85 213 -84
307 -157 475 -369 55 -69 117 -140 139 -158 38 -33 38 -34 24 -62 -8 -16 -19
-46 -23 -66 -7 -36 -9 -38 -55 -39 -66 -3 -135 -41 -160 -88 -56 -107 -16
-298 73 -351 35 -20 130 -21 196 -1 42 13 54 13 91 0 55 -19 146 -19 206 -1
40 12 54 12 94 0 25 -8 56 -14 68 -14 28 0 34 -27 28 -113 -5 -57 -3 -64 22
-87 25 -23 34 -25 128 -25 84 0 111 4 149 22 101 46 119 101 73 215 -27 65
-25 73 16 83 21 5 32 -1 66 -37 36 -40 40 -50 46 -114 9 -94 26 -108 122 -102
91 6 168 42 229 108 64 68 64 90 3 163 -102 119 -122 138 -177 166 -54 26 -58
30 -45 47 13 18 15 18 50 1 56 -26 166 -39 240 -27 110 17 204 68 325 175 89
78 131 99 186 90 64 -9 84 15 84 100 0 36 -6 81 -14 100 -23 54 -72 71 -103
35 -10 -11 -28 -20 -41 -20 -35 0 -88 -25 -187 -89 -49 -32 -107 -64 -129 -69
-37 -11 -38 -10 -30 11 4 12 8 43 8 69 1 43 4 48 34 63 47 22 135 107 178 172
53 79 78 150 113 312 47 221 104 320 228 394 61 36 66 56 23 87 -98 70 -316
113 -465 93z m310 -53 c66 -21 165 -65 165 -75 0 -2 -27 -18 -61 -36 -33 -18
-80 -54 -104 -81 -73 -82 -94 -135 -154 -403 -36 -159 -115 -285 -231 -370
-42 -31 -52 -34 -69 -24 -15 10 -21 29 -26 83 -4 39 -17 103 -30 141 -20 61
-22 77 -12 118 8 37 7 77 -7 187 -11 84 -15 156 -11 182 29 169 188 265 428
256 98 -3 116 7 30 18 -189 23 -381 -45 -448 -160 -46 -78 -51 -135 -30 -309
10 -85 15 -162 11 -173 -6 -16 -9 -14 -26 14 -28 46 -116 127 -167 154 -23 13
-43 27 -43 31 0 23 74 193 103 239 72 112 188 191 328 223 90 21 262 13 354
-15z m-1816 -265 c143 -38 239 -117 351 -289 93 -142 148 -216 161 -216 17 0
9 19 -36 89 -25 38 -45 74 -45 79 0 16 130 100 190 123 78 31 244 38 326 14
75 -21 136 -56 198 -114 97 -91 137 -175 156 -324 9 -75 14 -90 40 -116 17
-16 30 -37 30 -46 0 -25 -28 -85 -40 -85 -18 0 -64 26 -83 48 -17 19 -17 21
13 50 45 45 39 124 -12 180 -45 48 -98 10 -98 -70 0 -128 105 -238 226 -238
56 0 114 25 219 92 99 64 170 86 159 51 -4 -10 3 -4 14 13 28 44 41 49 64 27
21 -22 35 -113 24 -158 -10 -38 -45 -30 -75 17 -28 44 -40 43 -18 -1 13 -27
14 -31 1 -31 -30 0 -100 -45 -183 -116 -48 -41 -119 -91 -161 -111 -74 -37
-77 -38 -190 -38 -111 0 -117 1 -191 36 -41 20 -95 55 -119 78 -47 44 -69 48
-29 5 l24 -26 -25 7 c-43 13 -120 47 -120 54 1 3 15 15 32 26 50 32 44 45 -8
19 -27 -14 -65 -24 -88 -24 -30 0 -37 -3 -26 -10 8 -5 29 -10 47 -10 28 0 33
-5 49 -47 25 -67 42 -92 77 -109 37 -20 74 -11 89 21 13 29 21 31 38 10 11
-13 8 -21 -20 -50 -60 -62 -116 -57 -195 16 -25 23 -42 34 -39 24 6 -16 3 -17
-30 -11 -87 16 -180 77 -212 137 -16 32 -19 115 -4 124 13 8 13 25 -1 25 -6 0
-15 -12 -21 -28 -9 -23 -23 -31 -87 -51 -91 -29 -230 -39 -298 -21 -127 31
-204 93 -358 285 -155 194 -259 279 -420 340 -115 44 -114 44 -79 44 44 1 80
15 244 91 240 112 348 136 481 106 181 -40 296 -157 375 -379 59 -165 169
-358 195 -342 5 4 -9 29 -30 58 -54 72 -73 113 -120 260 -51 161 -91 237 -162
308 -103 103 -246 156 -389 146 -107 -8 -192 -37 -385 -135 -155 -78 -176 -86
-240 -90 -54 -3 -73 -1 -83 10 -10 13 -1 17 57 27 76 14 150 46 256 111 95 58
205 108 290 130 85 23 220 25 294 5z m1246 -639 c27 -40 28 -87 5 -125 -22
-35 -39 -37 -21 -3 15 29 14 52 -4 52 -8 0 -15 7 -15 15 0 8 5 15 11 15 8 0 7
5 -2 16 -8 10 -21 13 -36 9 -21 -5 -22 -4 -11 20 15 33 52 33 73 1z m-1230
-362 c39 -15 75 -19 165 -19 111 1 149 9 241 49 12 5 18 -3 28 -34 25 -85 140
-170 250 -186 25 -3 56 -15 68 -27 12 -11 45 -27 72 -37 l50 -17 -32 -31 c-32
-31 -136 -102 -148 -102 -4 0 -19 20 -33 43 -25 44 -139 157 -157 157 -18 0
-9 -16 21 -38 71 -53 190 -271 190 -348 0 -26 -1 -26 -18 -11 -27 25 -57 21
-70 -8 -11 -24 -13 -25 -34 -11 -20 12 -28 13 -55 1 -17 -7 -34 -23 -38 -35
-6 -20 -8 -20 -24 -6 -20 18 -54 21 -81 6 -17 -9 -18 -6 -13 49 3 34 0 74 -7
97 -19 61 -100 181 -100 149 0 -3 14 -27 30 -53 17 -27 30 -53 30 -57 0 -13
-74 6 -138 36 -66 32 -162 118 -162 146 0 13 -3 14 -12 5 -9 -9 -7 -19 10 -42
12 -16 22 -34 22 -39 0 -22 -172 -95 -201 -86 -10 4 -30 25 -44 48 -14 23 -25
36 -25 29 0 -21 20 -55 44 -75 l21 -18 -30 3 c-24 2 -34 11 -50 43 -15 30 -20
35 -23 21 -2 -10 6 -31 17 -47 l22 -29 -30 0 c-42 0 -61 9 -61 31 0 29 -22 69
-38 69 -10 0 -12 6 -7 18 16 39 17 53 1 77 -15 23 -15 27 -1 41 22 22 28 55
16 88 -6 15 -11 29 -11 31 0 1 18 10 40 19 47 19 121 21 138 4 17 -17 27 -2
12 17 -13 16 -7 48 21 122 l9 23 37 -23 c21 -13 61 -32 88 -43z m831 -108 c1
0 6 -10 12 -21 11 -19 11 -19 12 -1 0 12 5 16 16 12 9 -3 20 -6 25 -6 15 0 10
-30 -7 -37 -22 -8 -80 21 -94 48 -11 19 -10 20 12 14 12 -4 23 -8 24 -9z
m-1176 -72 c0 -23 -35 -73 -44 -63 -3 3 1 30 10 59 11 39 18 49 25 39 5 -8 9
-24 9 -35z m1365 -69 c24 -14 62 -47 85 -73 23 -26 55 -60 70 -77 22 -24 26
-37 23 -62 -4 -27 -10 -33 -31 -33 -31 0 -62 -26 -62 -52 0 -14 -5 -18 -19
-13 -28 9 -68 -14 -82 -46 -9 -23 -18 -29 -41 -29 -53 0 -68 15 -68 71 0 61
-16 94 -68 141 l-39 35 49 43 c27 23 54 53 60 66 6 13 17 24 23 24 7 0 18 7
25 15 17 20 24 19 75 -10z m-1384 -39 c13 -29 3 -90 -11 -66 -4 8 -11 32 -15
53 -8 43 9 52 26 13z m35 -121 c9 -38 -2 -41 -21 -6 -14 27 -14 31 0 31 8 0
17 -11 21 -25z m435 -1 c7 -8 26 -22 43 -31 28 -15 29 -17 11 -24 -26 -10
-195 -11 -195 -1 0 4 20 15 44 25 25 10 50 25 57 33 15 18 23 18 40 -2z m1129
-58 c0 -8 -7 -19 -15 -26 -12 -10 -15 -10 -15 3 0 25 11 47 21 41 5 -3 9 -11
9 -18z m-35 -45 c5 -10 -62 -71 -78 -71 -14 0 2 54 20 68 20 14 49 16 58 3z
m-98 -77 c2 -6 -14 -16 -35 -22 -60 -18 -70 -14 -38 14 28 25 66 29 73 8z
m-409 -26 c18 -18 15 -26 -18 -43 -50 -26 -59 -20 -40 29 10 28 38 34 58 14z
m-98 -28 c36 -36 29 -45 -47 -55 -62 -8 -68 2 -24 46 35 34 44 36 71 9z m-126
-36 c24 -23 20 -27 -21 -19 -46 8 -55 13 -48 26 10 14 52 11 69 -7z"/>
<path d="M1825 2095 c71 -17 134 -47 205 -97 100 -69 108 -73 56 -25 -76 70
-224 139 -290 136 -12 -1 2 -7 29 -14z"/>
<path d="M2124 1900 c-24 -9 -41 -30 -25 -30 5 0 13 5 17 11 3 6 22 9 40 7 19
-2 34 0 34 4 0 4 -4 8 -9 8 -5 0 -15 2 -23 4 -7 3 -23 1 -34 -4z"/>
<path d="M1184 1813 c18 -38 44 -79 56 -93 l22 -25 -20 30 c-11 17 -34 58 -51
93 -17 34 -34 62 -36 62 -3 0 10 -30 29 -67z"/>
<path d="M1671 1834 c-17 -14 -31 -33 -31 -42 0 -14 3 -13 18 4 21 26 54 44
81 44 12 0 21 5 21 10 0 20 -59 10 -89 -16z"/>
<path d="M2134 1850 c-41 -16 -32 -25 27 -25 32 -1 59 0 59 2 0 3 -58 33 -62
32 -2 0 -13 -4 -24 -9z"/>
<path d="M1702 1784 c-12 -8 -29 -28 -37 -45 -17 -32 -7 -40 12 -9 19 30 69
52 100 44 25 -7 27 -6 14 9 -17 21 -60 22 -89 1z"/>
<path d="M1710 1665 c-25 -26 -31 -68 -17 -117 7 -25 5 -28 -18 -28 -14 0 -25
-4 -25 -10 0 -5 20 -10 43 -10 33 0 54 -8 85 -29 39 -29 40 -29 57 -11 23 25
30 98 15 143 -13 43 -62 87 -94 87 -12 0 -33 -11 -46 -25z m93 -22 c36 -41 43
-159 9 -171 -9 -3 -10 9 -5 43 6 45 5 47 -15 41 -25 -8 -38 9 -16 22 9 5 14
14 10 21 -9 15 -49 14 -64 -1 -9 -9 -12 -6 -12 13 0 14 5 30 12 37 18 18 63
15 81 -5z"/>
<path d="M2752 1568 c-30 -30 4 -124 37 -103 15 9 13 76 -3 98 -16 20 -18 21
-34 5z m33 -31 c3 -12 2 -33 -3 -47 l-9 -24 -12 23 c-13 24 -7 71 9 71 5 0 12
-10 15 -23z"/>
<path d="M2001 1539 c-41 -25 -35 -37 8 -15 16 9 37 16 45 16 8 0 18 5 21 10
11 18 -39 11 -74 -11z"/>
<path d="M2611 1500 c-29 -16 -59 -35 -67 -41 -7 -6 -41 -26 -76 -45 -35 -19
-52 -32 -39 -28 13 3 45 19 70 35 25 15 78 46 116 69 80 46 77 55 -4 10z"/>
<path d="M2045 1459 c-19 -17 -35 -36 -35 -41 0 -6 15 3 33 18 19 16 42 34 53
41 17 10 17 12 2 12 -10 1 -33 -13 -53 -30z"/>
<path d="M2169 1407 c-15 -12 -32 -33 -39 -47 -9 -19 -2 -15 31 17 46 45 51
66 8 30z"/>
<path d="M2243 1385 c21 -15 95 -30 104 -21 4 3 -5 6 -18 6 -13 1 -42 7 -64
15 -33 12 -37 12 -22 0z"/>
<path d="M893 1293 c12 -19 133 -73 186 -83 29 -5 83 -9 120 -9 61 2 58 3 -30
9 -110 9 -152 20 -228 63 -30 17 -51 26 -48 20z"/>
<path d="M771 1220 c0 -8 7 -31 14 -50 12 -31 14 -32 14 -10 0 14 -6 36 -14
50 -8 14 -14 18 -14 10z"/>
<path d="M731 1174 c-1 -25 5 -46 14 -54 8 -7 15 -11 15 -9 -1 2 -7 27 -15 54
l-14 50 0 -41z"/>
<path d="M800 983 c0 -13 41 -75 46 -70 3 2 -5 21 -17 41 -21 35 -29 44 -29
29z"/>
<path d="M1514 919 c-17 -5 -38 -16 -45 -26 -12 -14 -12 -15 1 -10 8 3 34 12
58 19 23 7 42 16 42 20 0 10 -15 9 -56 -3z"/>
<path d="M1555 873 c-44 -10 -86 -25 -81 -30 7 -7 116 19 116 29 0 8 -2 9 -35
1z"/>
<path d="M1527 815 c-32 -5 -56 -13 -53 -16 7 -7 105 7 114 16 11 11 -4 11
-61 0z"/>
<path d="M1970 985 c-47 -48 -34 -51 19 -4 24 21 37 39 29 39 -8 0 -29 -16
-48 -35z"/>
<path d="M1997 949 c-20 -17 -37 -35 -37 -41 0 -5 15 3 33 18 19 16 42 34 53
41 15 9 15 12 4 12 -9 1 -32 -13 -53 -30z"/>
<path d="M2033 919 c-24 -17 -43 -34 -43 -40 0 -5 23 7 50 27 28 20 50 38 50
40 0 9 -18 1 -57 -27z"/>
</g>
</svg>
